<svg width="100" height="100" viewBox="0 0 100 100" fill="none" xmlns="http://www.w3.org/2000/svg">
<path d="M66.2871 50.5123L99.9996 71.8248V28.2998L66.2871 50.5123Z" fill="white" fill-opacity="0.7"/>
<path d="M0 28.2998V71.8248L33.7125 50.5123L0 28.2998Z" fill="white" fill-opacity="0.7"/>
<path d="M93.75 15.625H6.25C3.13125 15.625 0.65625 17.95 0.1875 20.9438L50 53.7625L99.8125 20.9438C99.3438 17.95 96.8688 15.625 93.75 15.625Z" fill="white" fill-opacity="0.7"/>
<path d="M60.5637 54.2875L51.7199 60.1125C51.1949 60.4562 50.6012 60.625 50.0012 60.625C49.4012 60.625 48.8074 60.4562 48.2824 60.1125L39.4387 54.2812L0.201172 79.1C0.682422 82.0688 3.14492 84.375 6.25117 84.375H93.7512C96.8574 84.375 99.3199 82.0688 99.8012 79.1L60.5637 54.2875Z" fill="white" fill-opacity="0.7"/>
</svg>
