<svg width="100" height="100" viewBox="0 0 100 100" fill="none" xmlns="http://www.w3.org/2000/svg">
<g clip-path="url(#clip0)">
<path d="M97.2787 73.3899L83.3234 59.4346C78.3394 54.4506 69.8665 56.4444 67.8729 62.9235C66.3777 67.4093 61.3937 69.9013 56.9081 68.9043C46.94 66.4123 33.4831 53.4538 30.9911 42.9873C29.4959 38.5015 32.4863 33.5174 36.9719 32.0224C43.4512 30.0288 45.4448 21.556 40.4607 16.5719L26.5054 2.61662C22.5182 -0.872206 16.5374 -0.872206 13.0485 2.61662L3.57888 12.0863C-5.89079 22.0544 4.57569 48.4697 28.0007 71.8947C51.4256 95.3197 77.841 106.285 87.8091 96.3165L97.2787 86.8468C100.768 82.8596 100.768 76.8787 97.2787 73.3899Z" fill="white" fill-opacity="0.7"/>
</g>
<defs>
<clipPath id="clip0">
<rect width="100" height="100" fill="white"/>
</clipPath>
</defs>
</svg>
